<svg xmlns="http://www.w3.org/2000/svg" viewBox="0 0 58 58" width="52" height="52">
	<style>
		tspan { white-space:pre }
		.shp0 { fill: #010002 } 
	</style>
	<g id="Layer">
		<g id="Layer">
			<path id="Layer" class="shp0" d="M28.89 19.62C26.22 19.62 24.05 17.45 24.05 14.78C24.05 12.1 26.22 9.94 28.89 9.94C31.57 9.94 33.73 12.1 33.73 14.78C33.73 17.45 31.57 19.62 28.89 19.62Z" />
			<path id="Layer" class="shp0" d="M43.19 12.04C43.13 10.55 42.15 9.68 41.02 9.39L41.02 6.96L40.71 6.96L40.71 6.64L40.92 6.64C42.18 6.64 43.17 5.11 43.17 3.15L43.17 0.76L42.53 0.76L42.53 3.15C42.53 4.7 41.79 6.01 40.92 6.01L40.71 6.01L40.71 0.92L40.07 0.92L40.07 6.01L39.86 6.01C38.98 6.01 38.24 4.7 38.24 3.15L38.24 0.76L37.61 0.76L37.61 3.15C37.61 5.11 38.59 6.64 39.86 6.64L40.07 6.64L40.07 6.96L39.75 6.96L39.75 9.32C38.51 9.5 37.43 10.4 37.49 12.04C37.69 16.7 36.21 20.6 33.16 23.51C32 22.1 30.32 21.21 28.44 21.21C26.78 21.21 25.27 21.92 24.13 23.06C21.06 20.15 19.58 16.24 19.78 11.56C19.84 10.12 19 9.26 17.95 8.95L17.95 0C14.04 1.94 16.69 7.29 16.69 7.29L16.73 8.84C15.41 8.96 14.15 9.87 14.08 11.56C13.78 18.57 16.68 24.73 22.06 28.77L22.06 36.33C22.06 36.63 22.09 36.89 22.13 37.14C22.13 42.82 22.13 48.5 22.13 54.18C22.13 58.3 27.82 58.3 27.82 54.18C27.82 49.41 27.82 44.64 27.82 39.87C28.03 39.86 28.24 39.84 28.44 39.83C28.63 39.81 28.82 39.81 29.01 39.8C29.01 44.59 29.01 49.38 29.01 54.18C29.01 58.3 34.71 58.3 34.71 54.18C34.71 48.58 34.71 42.98 34.71 37.38C34.78 37.07 34.82 36.73 34.82 36.33L34.82 29.54C40.46 25.5 43.49 19.21 43.19 12.04Z" />
		</g>
	</g>
	<g id="Layer">
	</g>
	<g id="Layer">
	</g>
	<g id="Layer">
	</g>
	<g id="Layer">
	</g>
	<g id="Layer">
	</g>
	<g id="Layer">
	</g>
	<g id="Layer">
	</g>
	<g id="Layer">
	</g>
	<g id="Layer">
	</g>
	<g id="Layer">
	</g>
	<g id="Layer">
	</g>
	<g id="Layer">
	</g>
	<g id="Layer">
	</g>
	<g id="Layer">
	</g>
	<g id="Layer">
	</g>
</svg>